<?xml version="1.0" encoding="utf-8"?>
<!-- Generator: Adobe Illustrator 27.9.0, SVG Export Plug-In . SVG Version: 6.00 Build 0)  -->
<svg version="1.1" id="Layer_1" xmlns="http://www.w3.org/2000/svg" xmlns:xlink="http://www.w3.org/1999/xlink" x="0px" y="0px"
	 viewBox="0 0 211.9 129.4" style="enable-background:new 0 0 211.9 129.4;" xml:space="preserve">
<style type="text/css">
	.Drop_x0020_Shadow{fill:none;}
	.Round_x0020_Corners_x0020_2_x0020_pt{fill:#FFFFFF;stroke:#231F20;stroke-miterlimit:10;}
	.Live_x0020_Reflect_x0020_X{fill:none;}
	.Bevel_x0020_Soft{fill:url(#SVGID_1_);}
	.Dusk{fill:#FFFFFF;}
	.Foliage_GS{fill:#FFDD00;}
	.Pompadour_GS{fill-rule:evenodd;clip-rule:evenodd;fill:#44ADE2;}
	.st0{fill:#FF0000;}
</style>
<linearGradient id="SVGID_1_" gradientUnits="userSpaceOnUse" x1="77.5914" y1="38.8679" x2="78.2985" y2="39.575">
	<stop  offset="0" style="stop-color:#DEDFE3"/>
	<stop  offset="0.1783" style="stop-color:#DADBDF"/>
	<stop  offset="0.3611" style="stop-color:#CECFD3"/>
	<stop  offset="0.546" style="stop-color:#B9BCBF"/>
	<stop  offset="0.7324" style="stop-color:#9CA0A2"/>
	<stop  offset="0.9181" style="stop-color:#787D7E"/>
	<stop  offset="1" style="stop-color:#656B6C"/>
</linearGradient>
<g>
	<path class="st0" d="M115.9,90.3c0,3.1-0.7,5.8-2,8.1s-3.3,4.2-5.9,5.5c-2.6,1.3-5.6,2-8.9,2H84.8v-1.7c1-0.1,1.7-0.2,2.1-0.2
		c0.4-0.1,0.7-0.2,1-0.4c0.3-0.2,0.5-0.5,0.6-0.8c0.1-0.3,0.2-0.7,0.2-1.2V79.1c0-1-0.3-1.7-0.9-2.1c-0.6-0.4-1.7-0.7-3.2-0.9v-1.7
		h15c3.1,0,6,0.7,8.6,2.1s4.5,3.3,5.7,5.7C115.3,84.4,115.9,87.1,115.9,90.3z M107.3,90.3c0-4.3-0.7-7.7-2.2-10.2
		c-1.5-2.5-3.5-3.7-6-3.7l-2.6,0.1v23.9c0,2.3,1.1,3.5,3.3,3.5c2.5,0,4.4-1.1,5.6-3.3C106.7,98.3,107.3,94.9,107.3,90.3z"/>
	<path class="st0" d="M133.4,105.8v-1.7c1.1-0.1,2-0.2,2.7-0.5c0.7-0.2,1-0.5,1-0.8c0-0.1,0-0.3-0.1-0.6c-0.1-0.3-0.8-2.6-2.2-7
		h-9.1c-1.3,3.6-2,5.9-2,7c0,0.5,0.3,0.9,0.9,1.2c0.6,0.3,1.6,0.5,3,0.7v1.7h-11.4v-1.7c0.7,0,1.4-0.2,1.9-0.4
		c0.6-0.3,1.1-0.6,1.6-1c0.5-0.4,0.9-1,1.2-1.6c0.3-0.6,1.2-2.9,2.6-6.8c1.4-3.9,3.8-10.7,7.1-20.5h4.3c0.4,1.2,2.1,6.1,5.1,14.6
		c3,8.5,4.7,13.1,5,13.6c0.3,0.6,0.7,1,1.2,1.3c0.7,0.4,1.5,0.7,2.6,0.8v1.7H133.4z M130.4,81.4l-3.9,11.7h7.7L130.4,81.4z"/>
	<path class="st0" d="M172.8,96.6c0,1.9-0.5,3.6-1.4,5.2s-2.3,2.7-4,3.6c-1.7,0.9-3.7,1.3-5.9,1.3c-3.2,0-6-0.8-8.4-2.4l-1.5,1.6
		h-1.8l-0.3-11.4h1.9c1.1,3.3,2.5,5.8,4,7.5c1.5,1.7,3.3,2.5,5.1,2.5c1.6,0,2.9-0.5,3.8-1.4c0.9-1,1.4-2.2,1.4-3.8
		c0-1.2-0.3-2.2-0.9-3c-0.6-0.8-1.6-1.5-3-2l-3.6-1.4c-2-0.7-3.4-1.4-4.2-1.9c-0.8-0.6-1.5-1.2-2-2c-0.5-0.8-1-1.6-1.3-2.6
		s-0.4-2.1-0.4-3.3c0-1.7,0.4-3.3,1.3-4.8c0.9-1.5,2.1-2.6,3.6-3.4s3.3-1.2,5.3-1.2c2.6,0,5,0.7,7.3,2.1l1.3-1.3h1.9l0.2,10.7h-1.9
		c-0.8-2.5-1.5-4.3-2.2-5.6c-0.7-1.2-1.5-2.2-2.3-2.8c-0.9-0.7-1.9-1-3-1c-1.3,0-2.4,0.5-3.2,1.4s-1.2,2-1.2,3.4
		c0,1.3,0.4,2.3,1.1,3.1c0.7,0.8,1.8,1.5,3.2,2l3.1,1.2c2.2,0.8,3.8,1.7,4.9,2.5c1.1,0.8,1.9,1.9,2.5,3.1S172.8,95,172.8,96.6z"/>
	<path class="st0" d="M194.6,105.8v-1.7c1.2-0.1,2.1-0.3,2.5-0.5c0.5-0.2,0.8-0.5,0.9-0.9c0.2-0.4,0.2-0.8,0.2-1.3V90.6h-10.7v10.6
		c0,0.6,0.1,1.1,0.4,1.5s0.8,0.7,1.4,0.9c0.7,0.2,1.3,0.4,1.8,0.4v1.7h-15.4v-1.7c1.2-0.1,2-0.2,2.5-0.4c0.5-0.2,0.9-0.5,1.1-0.8
		c0.2-0.4,0.3-0.9,0.3-1.5V79.1c0-0.6-0.1-1.1-0.3-1.5c-0.2-0.4-0.8-0.7-1.6-1s-1.5-0.5-2.1-0.6v-1.7h15.4V76
		c-0.7,0.1-1.3,0.2-2,0.4s-1.1,0.5-1.3,0.9c-0.2,0.4-0.3,0.9-0.3,1.5v9.4h10.7v-9.2c0-1-0.5-1.8-1.4-2.2c-0.9-0.5-1.7-0.7-2.3-0.8
		v-1.7H210V76c-1.6,0.2-2.7,0.5-3.2,0.8c-0.5,0.4-0.8,1-0.8,2v22.3c0,0.4,0.1,0.8,0.2,1.1c0.1,0.3,0.4,0.6,0.7,0.9
		c0.3,0.2,0.8,0.5,1.5,0.6c0.7,0.2,1.2,0.3,1.6,0.3v1.7H194.6z"/>
</g>
<path class="st0" d="M146.9,0c0.1,0,0.3,0,0.4,0c0.9,7.1,1.8,14.1,2.7,21.2c2-4.3,3.9-8.6,5.9-12.9c-0.5,4.6-1.1,9.1-1.7,13.7
	c3.9-6.1,7.7-12.3,11.7-18.4c0.3,0.3,0,0.7-0.1,1.1c-2.3,6.3-4.7,12.6-7,19c3.8-3.6,7.6-7.3,11.5-10.9c-2.6,4.4-5.2,8.8-7.9,13.2
	c6.7-4.4,13.4-8.9,20-13.4c0.4-0.2,0.7-0.6,1.2-0.5c-2.1,2.2-4.4,4.1-6.5,6.2c-3.7,3.5-7.4,6.9-11.1,10.4c4.9-1.7,9.7-3.5,14.6-5.1
	l0.1,0.3c-3.9,2.7-7.8,5.2-11.7,7.9c5.8-0.9,11.6-1.9,17.3-2.8c3-0.4,6-1,9-1.4c-0.2,0.5-0.7,0.5-1.1,0.6
	c-7.8,2.4-15.5,4.8-23.3,7.2c5.7,0.5,11.4,0.9,17.2,1.4c-5.4,1-10.7,2-16.1,3c8.2,2.1,16.3,4.2,24.5,6.3c0.3,0.1,0.5,0.2,0.7,0.5
	c-8.3-0.9-16.7-1.9-25-2.9c3.8,2.3,7.7,4.7,11.5,7c0.3,0.2,0.6,0.4,0.8,0.8c-0.9-0.2-1.7-0.6-2.6-1c-11.6-4.9-23.3-9.9-34.9-14.8
	c-12.5,5.3-24.9,10.6-37.4,15.8c-0.1-0.5,0.4-0.6,0.7-0.8c3.9-2.3,7.7-4.7,11.6-7c-8.4,1-16.7,2-25.1,2.9c0-0.5,0.5-0.4,0.8-0.6
	c8.2-2.1,16.3-4.2,24.5-6.2c-5.4-1-10.7-1.9-16.1-3c5.7-0.5,11.4-0.9,17.2-1.3c-8.1-2.5-16.3-5-24.4-7.5l0.1-0.4
	c8.7,1.4,17.5,2.8,26.2,4.2c-3.4-2.2-6.7-4.5-10.1-6.7c-0.6-0.4-1.3-0.8-1.8-1.4c0.4,0,0.8,0.1,1.2,0.3c4.6,1.6,9.1,3.2,13.7,4.9
	c-5.3-5-10.6-9.9-15.8-14.9c-0.7-0.6-1.4-1.2-1.9-1.9c0.3,0,0.7,0.1,0.9,0.3c6.8,4.5,13.6,9.1,20.3,13.6c-2.6-4.4-5.3-8.7-7.8-13.1
	c3.9,3.6,7.6,7.3,11.5,10.9c-2.4-6.7-5-13.3-7.4-20c0.4,0,0.6,0.3,0.7,0.6c3.7,5.9,7.5,11.8,11.2,17.7c-0.4-3.5-0.9-7.1-1.3-10.6
	c-0.1-1-0.3-2-0.3-2.9c1.9,4.3,3.8,8.5,5.8,12.8C145.1,14.1,146,7.1,146.9,0z"/>
<path class="st0" d="M85.6,67c20.4-9,40.9-18.1,61.3-27.1c9.1,4.1,18.3,8,27.5,12c11.4,5,22.8,9.9,34.2,14.9c-0.5,1.1-1,2.2-1.4,3.3
	c-20-8.7-40-17.4-60-26.1c-20,8.8-40,17.7-60,26.6C86.6,69.4,86.1,68.2,85.6,67z"/>
<g>
	<path class="st0" d="M75.4,110.3c0-22.4,0-44.9,0-67.3c-6.9,0-13.9,0-20.8,0c0,22.4,0,44.9,0,67.3c-2.4,0-4.8,0-7.2,0
		c0-17.6,0-35.1,0-52.7c-5.7,0-11.4,0-17.1,0c0,17.6,0,35.1,0,52.7c-2.1,0-4.2,0-6.3,0c0-10.1,0-20.1,0-30.2
		c-2.5-2.7-5.1-5.4-7.6-8.2c-2.6,2.7-5.1,5.4-7.7,8.2c0,10.1,0,20.1,0,30.2c-2.9,0-5.8,0-8.7,0c0,6.4,0,12.7,0,19.1
		c70.6,0,141.3,0,211.9,0c0-6.4,0-12.7,0-19.1C166.4,110.3,120.9,110.3,75.4,110.3z M15.9,90.3c-1.5,0-3,0-4.5,0c0-2.1,0-4.2,0-6.3
		c1.5,0,3,0,4.5,0C15.9,86.1,15.9,88.2,15.9,90.3z M20.7,107.4c-1.5,0-3,0-4.6,0c0-2.1,0-4.2,0-6.3c1.5,0,3,0,4.6,0
		C20.7,103.2,20.7,105.3,20.7,107.4z M33.1,94c0-2.1,0-4.1,0-6.2c1.5,0,3,0,4.5,0c0,2.1,0,4.1,0,6.2C36.1,94,34.6,94,33.1,94z
		 M43.1,72.9c-1.5,0-3,0-4.5,0c0-2.1,0-4.1,0-6.2c1.5,0,3,0,4.5,0C43.1,68.7,43.1,70.8,43.1,72.9z M57.6,53.2c1.5,0,3,0,4.5,0
		c0,2.1,0,4.1,0,6.2c-1.5,0-3,0-4.6,0C57.6,57.3,57.6,55.2,57.6,53.2z M57.7,99.5c0-2.1,0-4.1,0-6.2c1.5,0,3,0,4.5,0
		c0,2.1,0,4.1,0,6.2C60.8,99.5,59.3,99.5,57.7,99.5z M71.9,77.9c-1.5,0-3,0-4.5,0c0-2.1,0-4.1,0-6.2c1.5,0,3,0,4.5,0
		C71.9,73.8,71.9,75.9,71.9,77.9z M128.8,125.6l-1.7-2.6c-0.6-0.9-1-1.5-1.2-1.7c-0.2-0.2-0.5-0.4-0.7-0.5c-0.3-0.1-0.6-0.1-1.2-0.1
		h-0.5v4.9h-2.4v-11.7h5c1.3,0,2.2,0.1,2.7,0.3c0.6,0.2,1,0.6,1.4,1.1c0.3,0.5,0.5,1.2,0.5,1.9c0,0.9-0.3,1.6-0.8,2.2
		c-0.5,0.6-1.3,0.9-2.3,1.1c0.5,0.3,0.9,0.6,1.3,1s0.8,1,1.3,1.9l1.4,2.3H128.8z M145.3,125.6h-8.9v-11.7h8.7v2h-6.3v2.6h5.9v2h-5.9
		v3.2h6.6V125.6z M158.1,125.6l-1-2.7h-4.7l-1,2.7h-2.5l4.6-11.7h2.5l4.7,11.7H158.1z M173.1,125.6h-8.3v-11.6h2.4v9.7h5.9V125.6z
		 M180.3,125.6h-2.4v-11.7h2.4V125.6z M194.5,115.8H191v9.8h-2.4v-9.8h-3.5v-2h9.3V115.8z M204.6,120.6v4.9h-2.4v-4.9l-4.3-6.8h2.8
		l2.8,4.6l2.7-4.6h2.7L204.6,120.6z"/>
	<path class="st0" d="M128,118.1c0.2-0.2,0.2-0.5,0.2-0.9c0-0.4-0.1-0.7-0.3-1c-0.2-0.2-0.5-0.4-0.9-0.5c-0.2,0-0.8,0-1.7,0h-1.9v3
		h1.8c1.1,0,1.8,0,2.1-0.1C127.6,118.5,127.8,118.4,128,118.1z"/>
	<polygon class="st0" points="153.1,120.9 156.3,120.9 154.7,116.6 	"/>
</g>
</svg>
