<?xml version="1.0" encoding="utf-8"?>
<!-- Generator: Adobe Illustrator 21.0.0, SVG Export Plug-In . SVG Version: 6.00 Build 0)  -->
<svg version="1.1" id="Layer_1" xmlns="http://www.w3.org/2000/svg" xmlns:xlink="http://www.w3.org/1999/xlink" x="0px" y="0px"
	 viewBox="0 0 423.1 96.6" enable-background="new 0 0 423.1 96.6" xml:space="preserve">
<g>
	<path fill="#171619" d="M66.2,52.1l-26,26H23.5l33-33c1.8,1.2,3.5,2.4,5.2,3.5C63.2,49.8,64.8,50.9,66.2,52.1z"/>
	
		<linearGradient id="SVGID_1_" gradientUnits="userSpaceOnUse" x1="-350.9122" y1="-2.7719" x2="-350.9122" y2="77.8311" gradientTransform="matrix(-1 0 0 1 -275.9713 0)">
		<stop  offset="0" style="stop-color:#1F63AB"/>
		<stop  offset="0.9992" style="stop-color:#214373"/>
	</linearGradient>
	<path fill="url(#SVGID_1_)" d="M5.7,35.4C25,23.1,45.8,31.6,67.8,48.3c14.9,11.3,21.9,22.6,22,22.7l4.9,8l4.8-7.6
		c11.1-14.7,24-22.5,33.7-26.6c10.6-4.5,11-4.7,11.1-4.7l0,0l0-10.4c-0.4,0-3,0.3-14.9,5.3c-0.7,0.3-1.4,0.6-2,0.9L96.4,5.1
		L81.9,19.7V5.8L70.1,17.3v14.1l-3.6,3.6c-8.2-4.7-13.4-6.7-22.7-9.5C31.9,22.1,15.9,26.5,5.7,35.4z M76.5,41.7l19.9-20.5l19.9,20.5
		c-2.2,1.4-4.4,2.8-6.5,4.3c-5.5,4-10.3,8.6-14.8,13.7C91.5,55,85.2,48.3,76.5,41.7z"/>
	<g>
		<path fill="#1A64AF" d="M159.1,42.9l-5.1,24c-0.2,0.9-0.3,1.6-0.3,2.3c0,2,0.9,2.6,2.9,2.6c2.7,0,5.3-2.7,6.3-6.2h3
			c-4,11.5-11,13-14.8,13c-4.2,0-7.5-2.5-7.5-8.5c0-1.3,0.2-2.9,0.6-4.6l4.8-22.6H159.1z M156,27.9c3.1,0,5.6,2.5,5.6,5.6
			s-2.5,5.6-5.6,5.6s-5.6-2.5-5.6-5.6S152.9,27.9,156,27.9z"/>
		<path fill="#1A64AF" d="M180.8,49c-2.5,0-4.4,3-5.5,6.5l-4.8,22.6h-10.2l7.5-35.3H178l-0.8,3.7c3-3.4,6.1-3.9,8.2-3.9
			c4.5,0,7.8,2.3,7.8,8c0,5.7-3.4,14.2-3.4,18.2c0,1.8,0.7,3,2.8,3c1.2,0,1.9-0.1,2.3-0.4c-0.6,5.1-4,7.3-7.8,7.3
			c-5.4,0-7.1-3.9-7.1-8c0-4.8,3.2-13.5,3.2-18C183.3,50.3,182.5,49,180.8,49z"/>
		<path fill="#214373" d="M214.4,73.4h5c0.4,0.8,0.6,1.7,0.6,2.5c0,0.8-0.1,1.4-0.4,1.7c-0.3,0.3-0.8,0.5-1.4,0.5h-19.4
			c-0.4-1-0.6-2-0.6-2.9c0-0.6,0.2-1.1,0.5-1.4c0.3-0.3,0.8-0.4,1.5-0.4h3.2c0.1-2.9,0.2-10.6,0.2-23.1c0-6.7-0.1-11.6-0.2-14.5
			h-4.6c-0.4-1-0.6-2-0.6-2.9c0-0.6,0.2-1.1,0.5-1.4c0.3-0.3,0.8-0.4,1.5-0.4h17.9c7.2,0,12.3,1,15.3,3c3.1,2,4.6,5.2,4.6,9.6
			c0,6.1-3.8,10.3-11.3,12.6c1.9,0.8,3.5,2,4.8,3.6c1.3,1.6,2.7,3.9,4.1,6.9c1.4,3,2.6,4.8,3.6,5.5c0.9,0.7,2.3,1.1,4,1.1
			c0.6,2,0.6,3.5-0.2,4.2c-0.8,0.8-2.7,1.2-5.8,1.2c-3.6,0-6.1-0.4-7.4-1.2c-1.4-0.8-2.6-3.1-3.7-7c-1.1-3.9-2.3-6.8-3.6-8.7
			c-1.3-1.9-3-2.8-5.3-2.8c-1.2,0-2.3,0.1-3.2,0.3C214.3,66.3,214.3,71,214.4,73.4z M214.2,53.5h2.8c3,0,5.2-0.6,6.8-1.7
			c1.6-1.1,2.4-2.9,2.4-5.3c0-3.1-0.8-5.4-2.3-6.7c-1.5-1.3-3.5-2-5.9-2c-1.4,0-2.6,0.1-3.5,0.3c-0.1,1.4-0.2,5.5-0.2,12.3V53.5z"/>
		<path fill="#214373" d="M260,43.1c4.8,0,8.2,1.1,10.4,3.3c2.2,2.2,3.2,5.6,3.2,10.3c0,2.3-0.5,4-1.4,5c-0.9,1-2.9,1.5-6,1.5h-12.8
			c0.1,3,0.7,5.4,2,7.1c1.3,1.7,3.5,2.6,6.8,2.6c3.2,0,6.4-0.9,9.8-2.8c1.2,1.2,1.8,2.4,1.8,3.8c0,1.8-1.3,3.1-4,3.8
			c-2.7,0.7-5.9,1.1-9.5,1.1c-6.2,0-10.8-1.3-13.6-3.8c-2.8-2.5-4.2-6.7-4.2-12.5c0-6,1.6-10.8,4.8-14.2
			C250.4,44.8,254.6,43.1,260,43.1z M258.6,49.1c-1.7,0-3,0.7-3.9,2.1c-0.9,1.4-1.4,3.8-1.4,7.2h1.8c2.5,0,4.5-0.1,5.8-0.2
			c1.3-0.1,2.1-0.4,2.4-0.8c0.2-0.4,0.3-0.9,0.3-1.8c0-2.1-0.4-3.7-1.3-4.8C261.4,49.6,260.2,49.1,258.6,49.1z"/>
		<path fill="#214373" d="M298.9,75.5c-1.7,0.9-3.7,1.6-5.9,2.3c-2.2,0.7-4.3,1-6.2,1c-3.3,0-5.8-0.8-7.3-2.3
			c-1.5-1.5-2.3-3.7-2.3-6.5c0-3.9,1.3-6.8,4-8.6c2.7-1.9,6.9-2.8,12.6-2.8h3.8c-0.2-3.5-0.8-6-1.8-7.2c-1-1.3-2.4-1.9-4.3-1.9
			c-1.1,0-2.2,0.1-3.4,0.4c-0.8,1.5-1.3,2.3-1.4,2.4c-0.1,0.1-0.9,0.3-2.4,0.6c-1.4,0.3-2.5,0.2-3-0.3c-0.6-0.5-1.2-1.5-1.8-2.8
			c-0.6-1.3-0.9-2.5-0.9-3.4c0-0.6,0.2-1,0.7-1.3c0.5-0.3,2.2-0.7,5.2-1c3-0.4,6.2-0.6,9.6-0.6c4,0,7.2,0.7,9.5,2.1
			c2.3,1.4,3.4,4.1,3.4,8.1v9.1c0,5.1,0.2,8.2,0.7,9.3c0.4,1.2,1.2,1.6,2.3,1.4c0.3,0.6,0.5,1.3,0.5,1.9c0,1-0.6,1.8-1.8,2.4
			c-1.2,0.5-2.9,0.8-5,0.8c-0.9,0-1.6-0.1-2.2-0.3C300.9,77.9,300,77,298.9,75.5z M297.5,64.1c-1.7-0.3-3.3-0.5-5-0.5
			c-1.9,0-3.3,0.3-4.1,1c-0.8,0.6-1.2,1.9-1.2,3.6c0,1.6,0.4,2.7,1.2,3.5c0.8,0.8,2,1.2,3.6,1.2c1.2,0,2.3-0.3,3.3-0.8
			c1-0.5,1.6-1.3,1.9-2.3s0.4-2.2,0.4-3.8V64.1z"/>
		<path fill="#214373" d="M317.7,61.6c0-10.4,0-17-0.1-19.6c-0.1-2.7-0.3-4.5-0.5-5.5c-0.3-1-0.7-1.6-1.3-1.9
			c-0.6-0.3-1.5-0.4-2.5-0.4c-0.4-0.9-0.6-1.9-0.6-2.8c0-1,0.4-1.6,1.1-1.8c0.7-0.3,3-0.4,6.9-0.4c2.4,0,4.1,0.1,5,0.3
			c0.9,0.2,1.4,0.6,1.5,1.1c0.1,0.5,0.2,1.3,0.2,2.2v26.5c0,6.6,0.1,11.3,0.2,14.3h4.4c0.4,0.8,0.6,1.6,0.6,2.5
			c0,0.8-0.2,1.4-0.5,1.7c-0.3,0.3-1,0.5-1.9,0.5h-16.8c-0.4-1-0.6-1.9-0.6-2.7c0-0.7,0.2-1.2,0.5-1.5c0.3-0.3,0.8-0.5,1.5-0.5h2.8
			C317.6,70.5,317.7,66.5,317.7,61.6z"/>
		<path fill="#214373" d="M348.5,73.4h4.1c0.4,0.8,0.6,1.6,0.6,2.5c0,0.8-0.2,1.4-0.5,1.7c-0.3,0.3-1,0.5-1.9,0.5h-16.5
			c-0.4-1-0.6-1.9-0.6-2.7c0-0.7,0.2-1.2,0.5-1.5c0.3-0.3,0.8-0.5,1.5-0.5h2.8c0.1-2.9,0.2-6.1,0.2-9.4c0-5.1,0-8.4-0.1-10.1
			c-0.1-1.7-0.3-2.9-0.5-3.6c-0.3-0.8-0.7-1.3-1.3-1.4c-0.6-0.2-1.4-0.3-2.5-0.3c-0.4-0.6-0.6-1.4-0.6-2.2c0-1.3,0.5-2.1,1.6-2.4
			c1.1-0.3,3.2-0.4,6.4-0.4c2.4,0,4.1,0.1,5,0.3c0.9,0.2,1.4,0.5,1.5,1.1c0.1,0.5,0.2,1.3,0.2,2.3V64
			C348.3,67.4,348.4,70.5,348.5,73.4z M342.2,39c-2.1,0-3.6-0.4-4.5-1.2c-0.9-0.8-1.4-1.9-1.4-3.4c0-1.5,0.6-2.8,1.8-3.7
			c1.2-1,2.8-1.5,5-1.5c2.2,0,3.8,0.4,4.7,1.3c0.9,0.8,1.4,1.9,1.4,3.3c0,1.5-0.6,2.7-1.7,3.7C346.4,38.5,344.6,39,342.2,39z"/>
		<path fill="#214373" d="M356.5,44.1h2.4l3.4-10.4c1.2,0.3,2.3,0.8,3.3,1.3c1,0.6,1.8,1.2,2.3,1.9c0.5,0.7,0.8,2.5,0.8,5.3v1.9
			h11.6c0.4,0.9,0.6,1.9,0.6,2.9c0,0.9-0.2,1.5-0.5,1.8c-0.3,0.3-0.9,0.4-1.9,0.4h-9.9v13.6c0,3.9,0.3,6.6,1,8.1s1.8,2.2,3.3,2.2
			c1.5,0.1,3.4-0.5,5.7-1.6c0.7,0.9,1,1.9,1,3.1c0,1.6-0.8,2.6-2.5,3.1c-1.6,0.5-4.2,0.8-7.7,0.8c-3.8,0-6.5-0.8-8.1-2.3
			c-1.6-1.5-2.4-4.5-2.4-8.8v-6c0-3.8-0.1-7.9-0.3-12.2h-3.5c-0.4-1-0.6-2-0.6-3c0-0.8,0.2-1.3,0.5-1.7
			C355.2,44.3,355.8,44.1,356.5,44.1z"/>
		<path fill="#214373" d="M415.5,49.2c-0.7,1.9-2.7,8.4-6,19.6c-3.3,11.2-5.8,17.8-7.6,19.8s-3.9,3.3-6.2,3.9
			c-2.4,0.6-5.1,0.8-8,0.8c-3,0-5-0.3-5.9-0.8c-1-0.5-1.4-1.4-1.4-2.6c0-1.5,0.5-2.8,1.5-4c4.9,1,8.5,1.5,10.7,1.3
			c2.2-0.1,4.2-3,6-8.7c-3.6,0.1-5.5,0.1-5.8-0.1c-0.3-0.1-1.3-3.9-3.1-11.1c-1.8-7.3-2.9-11.7-3.3-13.4c-0.4-1.7-0.8-2.9-1.1-3.6
			c-0.3-0.8-0.7-1.3-1.1-1.4c-0.5-0.2-1.3-0.3-2.4-0.3c-0.4-1.1-0.6-2-0.6-2.9c0-1.1,0.5-1.7,1.4-1.9c0.9-0.2,3-0.3,6.2-0.3
			c2.2,0,3.6,0.1,4.5,0.4c0.8,0.3,1.4,0.8,1.7,1.5c0.3,0.7,0.8,2.9,1.4,6.6c0.6,3.7,1.5,8,2.5,13.1c1,5,1.7,7.6,2,7.6
			c0.3,0,1.3-3.4,2.9-10.2c1.7-6.8,2.6-11.2,2.9-13.2h-1.9c-0.4-0.8-0.6-1.7-0.6-2.5c0-0.9,0.2-1.5,0.5-1.9c0.4-0.4,0.9-0.6,1.7-0.6
			h11.7c0.4,0.8,0.6,1.6,0.6,2.5c0,1-0.2,1.7-0.6,2.1c-0.4,0.4-1.1,0.6-2,0.6H415.5z"/>
	</g>
</g>
</svg>
