<?xml version="1.0" encoding="utf-8"?>
<!-- Generator: Adobe Illustrator 26.0.2, SVG Export Plug-In . SVG Version: 6.00 Build 0)  -->
<svg version="1.1" id="Layer_1" xmlns="http://www.w3.org/2000/svg" xmlns:xlink="http://www.w3.org/1999/xlink" x="0px" y="0px"
	 viewBox="0 0 146 60" enable-background="new 0 0 146 60" xml:space="preserve">
<g id="Page-1">
	<g id="logo-dark">
		<path id="symbol-copy" fill="#2427BB" d="M30,0c16.6,0,30,13.4,30,30S46.6,60,30,60S0,46.6,0,30S13.4,0,30,0z M43.5,42H16.9v4.7
			h26.6V42z M30.1,11.1c-1.3,0-2.3,1-2.3,2.3c0,1.1,0.7,1.9,1.7,2.2l-0.9,3.8c-0.1,0.4-0.2,0.9-0.3,1.3L28.2,21l0,0l-0.1,0.3l0,0
			l-0.1,0.3c0,0,0,0.1,0,0.1L28,22.1c-0.8,3.3-2.2,6.5-5.6,1.9l-0.7-1c0.6-0.4,0.9-1.1,0.9-1.8c0-1.3-1-2.3-2.3-2.3
			c-1.3,0-2.3,1-2.3,2.3c0,1.3,1,2.3,2.3,2.3c0.2,0,0.3,0,0.5-0.1l0.2,1.5c0.3,2.1,0.7,5-1.7,4.8c-1.2-0.1-1.7-0.5-2.6-1.1L14,26.7
			c0.3-0.4,0.5-0.9,0.5-1.4c0-1.3-1-2.3-2.3-2.3c-1.3,0-2.3,1-2.3,2.3s1,2.3,2.3,2.3c0.3,0,0.6-0.1,0.8-0.2l3.9,11.4h26.5l4.1-11.5
			c0.2,0.1,0.4,0.1,0.7,0.1c1.3,0,2.3-1,2.3-2.3c0-1.3-1-2.3-2.3-2.3c-1.3,0-2.3,1-2.3,2.3c0,0.5,0.2,1,0.4,1.3L44,28.4
			c-3.3,2.7-5.4,1.5-4.7-2.8l0.4-2.4c0.1,0,0.3,0,0.4,0c1.3,0,2.3-1,2.3-2.3c0-1.3-1-2.3-2.3-2.3c-1.3,0-2.3,1-2.3,2.3
			c0,0.7,0.3,1.4,0.9,1.8l-0.6,0.9c-2.8,4.2-4.8,2.6-5.6-1.5L31,15.5c0.8-0.3,1.4-1.2,1.4-2.1C32.4,12.1,31.4,11.1,30.1,11.1z"/>
		<g id="EURO">
			<g>
				<path id="path-1" fill="#2427BB" d="M84.9,31v-3.2h-7.3v-3.1h6.1v-3.1h-6.1v-2.8h7.1v-3.2H73.9V31H84.9z M94.6,31.1
					c1.3,0,2.4-0.3,3.4-0.8s1.8-1.2,2.3-2.2c0.6-0.9,0.8-2,0.8-3.1l0,0v-9.5h-3.7v9.3c0,0.6-0.1,1.1-0.4,1.5c-0.3,0.4-0.6,0.8-1,1
					c-0.4,0.3-0.9,0.4-1.5,0.4c-0.5,0-1-0.1-1.4-0.4c-0.4-0.3-0.8-0.6-1-1c-0.2-0.4-0.4-0.9-0.4-1.5l0,0v-9.3H88v9.5
					c0,1.2,0.3,2.2,0.9,3.1c0.6,0.9,1.4,1.6,2.3,2.2C92.2,30.9,93.3,31.1,94.6,31.1z M117.8,31l-3.4-6l0.2-0.1
					c0.7-0.4,1.3-0.9,1.7-1.6l0.2-0.2c0.5-0.8,0.7-1.6,0.7-2.6c0-1-0.2-1.8-0.7-2.5c-0.5-0.7-1.1-1.3-1.9-1.7
					c-0.8-0.4-1.7-0.6-2.7-0.6l0,0h-7V31h3.6v-5.4h1.9l3,5.4L117.8,31z M111.6,22.7h-3.1v-3.9h2.7c0.5,0,0.8,0.1,1.2,0.3
					s0.6,0.4,0.8,0.7c0.2,0.3,0.3,0.6,0.3,1c0,0.4-0.1,0.7-0.2,1c-0.2,0.3-0.4,0.5-0.7,0.7C112.3,22.6,111.9,22.7,111.6,22.7
					L111.6,22.7z M127.2,31.2c1.1,0,2.2-0.2,3.2-0.6s1.8-1,2.5-1.7c0.7-0.7,1.3-1.6,1.7-2.5c0.4-1,0.6-2,0.6-3.2
					c0-1.2-0.2-2.2-0.6-3.2c-0.4-1-0.9-1.8-1.7-2.5s-1.6-1.3-2.5-1.7c-1-0.4-2-0.6-3.2-0.6c-1.2,0-2.2,0.2-3.2,0.6
					c-1,0.4-1.8,1-2.5,1.7c-0.7,0.7-1.3,1.6-1.7,2.5c-0.4,1-0.6,2-0.6,3.2c0,1.2,0.2,2.2,0.6,3.2c0.4,1,0.9,1.8,1.7,2.5
					c0.7,0.7,1.6,1.3,2.5,1.7S126,31.2,127.2,31.2z M127.2,27.7c-0.8,0-1.5-0.2-2.1-0.6c-0.6-0.4-1.1-0.9-1.5-1.6
					c-0.4-0.7-0.5-1.4-0.5-2.3c0-0.6,0.1-1.2,0.3-1.8c0.2-0.5,0.5-1,0.9-1.4s0.8-0.7,1.3-0.9c0.5-0.2,1.1-0.3,1.7-0.3
					s1.2,0.1,1.7,0.3c0.5,0.2,0.9,0.5,1.3,0.9c0.4,0.4,0.7,0.9,0.9,1.4c0.2,0.5,0.3,1.1,0.3,1.8c0,0.6-0.1,1.2-0.3,1.8
					c-0.2,0.5-0.5,1-0.9,1.4c-0.4,0.4-0.8,0.7-1.3,0.9C128.3,27.6,127.8,27.7,127.2,27.7z"/>
			</g>
			<g>
				<path id="path-1_00000152971413967040381990000015074278047711541145_" fill="#2427BB" d="M84.9,31v-3.2h-7.3v-3.1h6.1v-3.1
					h-6.1v-2.8h7.1v-3.2H73.9V31H84.9z M94.6,31.1c1.3,0,2.4-0.3,3.4-0.8s1.8-1.2,2.3-2.2c0.6-0.9,0.8-2,0.8-3.1l0,0v-9.5h-3.7v9.3
					c0,0.6-0.1,1.1-0.4,1.5c-0.3,0.4-0.6,0.8-1,1c-0.4,0.3-0.9,0.4-1.5,0.4c-0.5,0-1-0.1-1.4-0.4c-0.4-0.3-0.8-0.6-1-1
					c-0.2-0.4-0.4-0.9-0.4-1.5l0,0v-9.3H88v9.5c0,1.2,0.3,2.2,0.9,3.1c0.6,0.9,1.4,1.6,2.3,2.2C92.2,30.9,93.3,31.1,94.6,31.1z
					 M117.8,31l-3.4-6l0.2-0.1c0.7-0.4,1.3-0.9,1.7-1.6l0.2-0.2c0.5-0.8,0.7-1.6,0.7-2.6c0-1-0.2-1.8-0.7-2.5
					c-0.5-0.7-1.1-1.3-1.9-1.7c-0.8-0.4-1.7-0.6-2.7-0.6l0,0h-7V31h3.6v-5.4h1.9l3,5.4L117.8,31z M111.6,22.7h-3.1v-3.9h2.7
					c0.5,0,0.8,0.1,1.2,0.3s0.6,0.4,0.8,0.7c0.2,0.3,0.3,0.6,0.3,1c0,0.4-0.1,0.7-0.2,1c-0.2,0.3-0.4,0.5-0.7,0.7
					C112.3,22.6,111.9,22.7,111.6,22.7L111.6,22.7z M127.2,31.2c1.1,0,2.2-0.2,3.2-0.6s1.8-1,2.5-1.7c0.7-0.7,1.3-1.6,1.7-2.5
					c0.4-1,0.6-2,0.6-3.2c0-1.2-0.2-2.2-0.6-3.2c-0.4-1-0.9-1.8-1.7-2.5s-1.6-1.3-2.5-1.7c-1-0.4-2-0.6-3.2-0.6
					c-1.2,0-2.2,0.2-3.2,0.6c-1,0.4-1.8,1-2.5,1.7c-0.7,0.7-1.3,1.6-1.7,2.5c-0.4,1-0.6,2-0.6,3.2c0,1.2,0.2,2.2,0.6,3.2
					c0.4,1,0.9,1.8,1.7,2.5c0.7,0.7,1.6,1.3,2.5,1.7S126,31.2,127.2,31.2z M127.2,27.7c-0.8,0-1.5-0.2-2.1-0.6
					c-0.6-0.4-1.1-0.9-1.5-1.6c-0.4-0.7-0.5-1.4-0.5-2.3c0-0.6,0.1-1.2,0.3-1.8c0.2-0.5,0.5-1,0.9-1.4s0.8-0.7,1.3-0.9
					c0.5-0.2,1.1-0.3,1.7-0.3s1.2,0.1,1.7,0.3c0.5,0.2,0.9,0.5,1.3,0.9c0.4,0.4,0.7,0.9,0.9,1.4c0.2,0.5,0.3,1.1,0.3,1.8
					c0,0.6-0.1,1.2-0.3,1.8c-0.2,0.5-0.5,1-0.9,1.4c-0.4,0.4-0.8,0.7-1.3,0.9C128.3,27.6,127.8,27.7,127.2,27.7z"/>
			</g>
		</g>
		<g id="ROYAL">
			<g>
				<path id="path-2" fill="#2427BB" d="M86.8,51l-3.4-6l0.2-0.1c0.7-0.4,1.3-0.9,1.7-1.6l0.2-0.2c0.5-0.8,0.7-1.6,0.7-2.6
					c0-1-0.2-1.8-0.7-2.5c-0.5-0.7-1.1-1.3-1.9-1.7c-0.8-0.4-1.7-0.6-2.7-0.6l0,0h-7V51h3.6v-5.4h1.9l3,5.4L86.8,51z M80.6,42.7
					h-3.1v-3.9h2.7c0.5,0,0.8,0.1,1.2,0.3s0.6,0.4,0.8,0.7c0.2,0.3,0.3,0.6,0.3,1c0,0.4-0.1,0.7-0.2,1c-0.2,0.3-0.4,0.5-0.7,0.7
					C81.3,42.6,80.9,42.7,80.6,42.7L80.6,42.7z M96.2,51.2c1.1,0,2.2-0.2,3.2-0.6c1-0.4,1.8-1,2.5-1.7c0.7-0.7,1.3-1.6,1.7-2.5
					c0.4-1,0.6-2,0.6-3.2c0-1.2-0.2-2.2-0.6-3.2c-0.4-1-0.9-1.8-1.7-2.5s-1.6-1.3-2.5-1.7c-1-0.4-2-0.6-3.2-0.6
					c-1.2,0-2.2,0.2-3.2,0.6s-1.8,1-2.5,1.7s-1.3,1.6-1.7,2.5c-0.4,1-0.6,2-0.6,3.2c0,1.2,0.2,2.2,0.6,3.2c0.4,1,0.9,1.8,1.7,2.5
					s1.6,1.3,2.5,1.7S95,51.2,96.2,51.2z M96.2,47.7c-0.8,0-1.5-0.2-2.1-0.6c-0.6-0.4-1.1-0.9-1.5-1.6c-0.4-0.7-0.5-1.4-0.5-2.3
					c0-0.6,0.1-1.2,0.3-1.8c0.2-0.5,0.5-1,0.9-1.4s0.8-0.7,1.3-0.9c0.5-0.2,1.1-0.3,1.7-0.3s1.2,0.1,1.7,0.3
					c0.5,0.2,0.9,0.5,1.3,0.9c0.4,0.4,0.7,0.9,0.9,1.4s0.3,1.1,0.3,1.8c0,0.6-0.1,1.2-0.3,1.8s-0.5,1-0.9,1.4
					c-0.4,0.4-0.8,0.7-1.3,0.9S96.8,47.7,96.2,47.7z M114,51l0-6.9l5.6-8.5h-4.2l-3.4,5.3l-3.7-5.3h-4.3l6.1,8.6V51H114z M121.4,51
					l1.1-2.9h5.6l1.1,2.9h3.8L127,35.6h-3.2L117.7,51H121.4z M127.1,45.2h-3.5l0.7-2c0.1-0.2,0.2-0.5,0.3-0.7l0.1-0.3
					c0.1-0.3,0.2-0.7,0.4-1c0.1-0.4,0.2-0.7,0.3-1.1l0,0.1l0.1,0.2c0,0.1,0.1,0.2,0.1,0.4l0.1,0.4c0.1,0.4,0.2,0.7,0.4,1.1
					c0.1,0.4,0.2,0.7,0.3,1l0,0L127.1,45.2z M145.6,51v-3.3h-6.9V35.6H135V51H145.6z"/>
			</g>
			<g>
				<path id="path-2_00000181047290139534774900000008027244395058351025_" fill="#2427BB" d="M86.8,51l-3.4-6l0.2-0.1
					c0.7-0.4,1.3-0.9,1.7-1.6l0.2-0.2c0.5-0.8,0.7-1.6,0.7-2.6c0-1-0.2-1.8-0.7-2.5c-0.5-0.7-1.1-1.3-1.9-1.7
					c-0.8-0.4-1.7-0.6-2.7-0.6l0,0h-7V51h3.6v-5.4h1.9l3,5.4L86.8,51z M80.6,42.7h-3.1v-3.9h2.7c0.5,0,0.8,0.1,1.2,0.3
					s0.6,0.4,0.8,0.7c0.2,0.3,0.3,0.6,0.3,1c0,0.4-0.1,0.7-0.2,1c-0.2,0.3-0.4,0.5-0.7,0.7C81.3,42.6,80.9,42.7,80.6,42.7L80.6,42.7
					z M96.2,51.2c1.1,0,2.2-0.2,3.2-0.6c1-0.4,1.8-1,2.5-1.7c0.7-0.7,1.3-1.6,1.7-2.5c0.4-1,0.6-2,0.6-3.2c0-1.2-0.2-2.2-0.6-3.2
					c-0.4-1-0.9-1.8-1.7-2.5s-1.6-1.3-2.5-1.7c-1-0.4-2-0.6-3.2-0.6c-1.2,0-2.2,0.2-3.2,0.6s-1.8,1-2.5,1.7s-1.3,1.6-1.7,2.5
					c-0.4,1-0.6,2-0.6,3.2c0,1.2,0.2,2.2,0.6,3.2c0.4,1,0.9,1.8,1.7,2.5s1.6,1.3,2.5,1.7S95,51.2,96.2,51.2z M96.2,47.7
					c-0.8,0-1.5-0.2-2.1-0.6c-0.6-0.4-1.1-0.9-1.5-1.6c-0.4-0.7-0.5-1.4-0.5-2.3c0-0.6,0.1-1.2,0.3-1.8c0.2-0.5,0.5-1,0.9-1.4
					s0.8-0.7,1.3-0.9c0.5-0.2,1.1-0.3,1.7-0.3s1.2,0.1,1.7,0.3c0.5,0.2,0.9,0.5,1.3,0.9c0.4,0.4,0.7,0.9,0.9,1.4s0.3,1.1,0.3,1.8
					c0,0.6-0.1,1.2-0.3,1.8s-0.5,1-0.9,1.4c-0.4,0.4-0.8,0.7-1.3,0.9S96.8,47.7,96.2,47.7z M114,51l0-6.9l5.6-8.5h-4.2l-3.4,5.3
					l-3.7-5.3h-4.3l6.1,8.6V51H114z M121.4,51l1.1-2.9h5.6l1.1,2.9h3.8L127,35.6h-3.2L117.7,51H121.4z M127.1,45.2h-3.5l0.7-2
					c0.1-0.2,0.2-0.5,0.3-0.7l0.1-0.3c0.1-0.3,0.2-0.7,0.4-1c0.1-0.4,0.2-0.7,0.3-1.1l0,0.1l0.1,0.2c0,0.1,0.1,0.2,0.1,0.4l0.1,0.4
					c0.1,0.4,0.2,0.7,0.4,1.1c0.1,0.4,0.2,0.7,0.3,1l0,0L127.1,45.2z M145.6,51v-3.3h-6.9V35.6H135V51H145.6z"/>
			</g>
		</g>
	</g>
</g>
</svg>
